<svg width="901" height="1072" viewBox="0 0 901 1072" fill="none" xmlns="http://www.w3.org/2000/svg">
<g filter="url(#filter0_d_70_223)">
<path d="M266.735 375.738V354.258L791.977 232.432V259.682L266.735 375.738Z" fill="#101217"/>
<path d="M304.708 360.029L300.241 353.617M304.708 360.029C305.729 359.824 306.197 359.303 306.304 359.067C305.985 358.426 305.027 356.695 303.751 354.9C302.474 353.104 300.879 353.297 300.241 353.617M304.708 360.029C302.039 360.565 298.188 361.337 294.497 362.072M300.241 353.617L279.499 359.067C280.244 360.884 282.116 364.453 283.647 364.197C284.384 364.074 287.809 363.401 291.875 362.594M291.875 362.594C292.727 362.425 293.607 362.25 294.497 362.072M291.875 362.594L294.497 362.072M291.875 362.594C294.77 364.09 301.326 366.633 304.389 364.838C302.155 364.811 297.05 364.22 294.497 362.072" stroke="black"/>
<path d="M467.769 323.691L463.302 317.279M467.769 323.691C468.79 323.486 469.258 322.964 469.365 322.729C469.046 322.088 468.088 320.357 466.812 318.562C465.535 316.766 463.94 316.959 463.302 317.279M467.769 323.691C465.1 324.227 461.249 324.999 457.558 325.734M463.302 317.279L442.56 322.729C443.305 324.546 445.177 328.115 446.708 327.859C447.445 327.735 450.869 327.063 454.936 326.256M454.936 326.256C455.788 326.087 456.668 325.911 457.558 325.734M454.936 326.256L457.558 325.734M454.936 326.256C457.831 327.752 464.387 330.295 467.45 328.5C465.216 328.473 460.111 327.882 457.558 325.734" stroke="black"/>
<path d="M645.19 283.937L640.722 277.525M645.19 283.937C646.211 283.732 646.679 283.21 646.785 282.975C646.466 282.334 645.509 280.603 644.232 278.807C642.956 277.012 641.361 277.204 640.722 277.525M645.19 283.937C642.521 284.473 638.669 285.245 634.978 285.98M640.722 277.525L619.981 282.975C620.725 284.792 622.597 288.361 624.129 288.105C624.866 287.981 628.29 287.309 632.356 286.502M632.356 286.502C633.208 286.333 634.089 286.157 634.978 285.98M632.356 286.502L634.978 285.98M632.356 286.502C635.251 287.998 641.807 290.541 644.871 288.746C642.637 288.719 637.531 288.128 634.978 285.98" stroke="black"/>
<path d="M828.354 22.1211L790.7 32.3802L785.2 160.488L796.763 254.232L834.417 248.782L828.354 22.1211Z" fill="#1D1D1D"/>
<path d="M838.885 251.347L835.375 249.744L830.588 251.347V253.591L838.885 251.347Z" fill="#93724B"/>
<path d="M790.7 32.3802L828.354 22.1211L834.417 248.782L796.763 254.232V257.759L830.588 253.591V251.347L835.375 249.744L838.885 251.347L833.779 22.1211L828.673 19.877L790.7 30.4566V32.3802Z" fill="#DDDDDD"/>
<path d="M265.778 375.738L266.735 355.22L277.585 352.014V373.494L265.778 375.738Z" fill="#3D4456"/>
<path d="M279.818 374.135L280.776 351.694L291.625 348.488V371.891L279.818 374.135Z" fill="#3D4456"/>
<path d="M293.859 369.006L294.816 348.488L305.666 345.282V366.762L293.859 369.006Z" fill="#3D4456"/>
<path d="M307.899 364.197L308.857 345.602L319.706 342.396V361.953L307.899 364.197Z" fill="#3D4456"/>
<path d="M321.94 364.517L322.897 342.076L333.747 338.87V362.273L321.94 364.517Z" fill="#3D4456"/>
<path d="M335.98 360.029L336.938 338.87L347.787 335.664V357.785L335.98 360.029Z" fill="#3D4456"/>
<path d="M350.021 356.182L350.978 335.984L361.827 332.778V353.938L350.021 356.182Z" fill="#3D4456"/>
<path d="M364.061 352.335L365.019 332.458L375.868 329.252V350.091L364.061 352.335Z" fill="#3D4456"/>
<path d="M378.102 351.052L379.059 329.252L389.908 326.046V348.808L378.102 351.052Z" fill="#3D4456"/>
<path d="M392.142 346.885L393.099 326.367L403.949 323.161V344.641L392.142 346.885Z" fill="#3D4456"/>
<path d="M406.183 346.885L407.14 322.84L417.989 319.634V344.641L406.183 346.885Z" fill="#3D4456"/>
<path d="M420.223 342.076L421.18 319.634L432.03 316.428V340.152L420.223 342.076Z" fill="#3D4456"/>
<path d="M435.54 338.87L436.497 316.108L447.347 312.902V336.626L435.54 338.87Z" fill="#3D4456"/>
<path d="M449.58 335.343L450.538 312.581L461.387 309.375V333.099L449.58 335.343Z" fill="#3D4456"/>
<path d="M463.621 332.137L464.578 309.375L475.428 306.169V329.893L463.621 332.137Z" fill="#3D4456"/>
<path d="M477.661 329.252L478.619 306.49L489.468 303.284V327.008L477.661 329.252Z" fill="#3D4456"/>
<path d="M491.702 325.725L492.659 302.963L503.509 299.757V323.481L491.702 325.725Z" fill="#3D4456"/>
<path d="M505.742 322.519L506.7 299.757L517.549 296.551V320.275L505.742 322.519Z" fill="#3D4456"/>
<path d="M519.783 319.634L520.74 296.872L531.59 293.666V317.39L519.783 319.634Z" fill="#3D4456"/>
<path d="M533.823 316.108L534.781 293.345L545.63 290.139V313.863L533.823 316.108Z" fill="#3D4456"/>
<path d="M547.864 312.902L548.821 290.139L559.671 286.933V310.657L547.864 312.902Z" fill="#3D4456"/>
<path d="M561.904 310.016L562.862 287.254L573.711 284.048V307.772L561.904 310.016Z" fill="#3D4456"/>
<path d="M575.945 306.49L576.902 283.727L587.752 280.521V304.245L575.945 306.49Z" fill="#3D4456"/>
<path d="M589.985 303.284L590.943 280.521L601.792 277.315V301.04L589.985 303.284Z" fill="#3D4456"/>
<path d="M604.664 302.963L605.621 272.827L616.471 269.621V300.719L604.664 302.963Z" fill="#3D4456"/>
<path d="M618.704 299.437L619.662 269.301L630.511 266.095V297.192L618.704 299.437Z" fill="#3D4456"/>
<path d="M632.745 296.231L633.702 266.095L644.552 262.889V293.986L632.745 296.231Z" fill="#3D4456"/>
<path d="M646.785 293.345L647.743 263.209L658.592 260.003V291.101L646.785 293.345Z" fill="#3D4456"/>
<path d="M660.826 289.819L661.783 259.683L672.633 256.477V287.574L660.826 289.819Z" fill="#3D4456"/>
<path d="M674.866 286.613L675.824 261.286L686.673 258.08V284.369L674.866 286.613Z" fill="#3D4456"/>
<path d="M688.907 283.727L689.864 258.4L700.714 255.194V281.483L688.907 283.727Z" fill="#3D4456"/>
<path d="M702.947 280.201L703.905 254.874L714.754 251.668V277.957L702.947 280.201Z" fill="#3D4456"/>
<path d="M716.988 276.995L717.945 251.668L728.795 248.462V274.751L716.988 276.995Z" fill="#3D4456"/>
<path d="M731.028 274.109L731.986 248.782L742.835 245.576V271.865L731.028 274.109Z" fill="#3D4456"/>
<path d="M745.069 270.583L746.026 245.256L756.876 242.05V268.339L745.069 270.583Z" fill="#3D4456"/>
<path d="M759.109 267.377L760.067 242.05L770.916 238.844V265.133L759.109 267.377Z" fill="#3D4456"/>
<path d="M774.426 263.85L775.383 238.523L786.233 235.317V261.606L774.426 263.85Z" fill="#3D4456"/>
<path d="M896.642 261.927L795.487 221.532V227.944L896.642 266.736V261.927Z" fill="#3A4549"/>
<path d="M895.685 238.202L795.487 197.807V204.219L895.685 243.011V238.202Z" fill="#3A4549"/>
<path d="M828.534 231.44V268.305L831.226 269.621C830.89 257.114 830.217 231.967 830.217 231.44C830.217 230.914 829.095 231.221 828.534 231.44Z" fill="#D9F0FF"/>
<path d="M828.534 268.305V231.44C825.169 231.44 818.237 231.77 817.429 233.086C816.622 234.403 810.587 247.02 807.671 253.164H804.642L801.95 258.759L828.534 268.305Z" fill="#9D9D9D"/>
<path d="M807.671 253.164C810.587 247.02 816.622 234.403 817.429 233.086L794.21 238.682L795.22 256.455L801.95 258.759L804.642 253.164H807.671Z" fill="black"/>
<path d="M895.685 293.025V238.203L899.833 239.485L900.152 294.627L895.685 293.025Z" fill="#B0BABC"/>
<path d="M313.005 422.866L201.319 392.73L795.806 260.965L900.152 300.719L313.005 422.866Z" fill="#484848"/>
<mask id="mask0_70_223" style="mask-type:alpha" maskUnits="userSpaceOnUse" x="201" y="260" width="700" height="163">
<path d="M313.005 422.866L201.319 392.73L795.806 260.965L900.152 300.719L313.005 422.866Z" fill="#4D4337"/>
</mask>
<g mask="url(#mask0_70_223)">
<rect width="5.12617" height="168.751" transform="matrix(0.374034 -0.927415 0.926194 0.377048 243.51 367.82)" fill="#373737"/>
<rect width="5.12479" height="168.796" transform="matrix(0.443961 -0.896046 0.894385 0.447297 333.427 347.864)" fill="#373737"/>
<path d="M403.202 328.151L405.12 323.397L540.097 393.692L538.18 398.446L403.202 328.151Z" fill="#373737"/>
<rect width="5.11991" height="168.958" transform="matrix(0.633234 -0.77396 0.77105 0.636774 527.005 291.839)" fill="#373737"/>
<path d="M606.04 267.728L608.838 263.437L727.699 358.678L724.901 362.968L606.04 267.728Z" fill="#373737"/>
<rect width="5.11528" height="169.111" transform="matrix(0.771209 -0.636583 0.633042 0.774117 734.5 256.206)" fill="#373737"/>
</g>
<path d="M503.828 495L505.104 345.282C506.7 341.648 514.613 334.381 533.504 334.381C552.395 334.381 560.521 341.648 562.223 345.282V495H503.828Z" fill="#5E6369"/>
<path d="M519.144 396.898C507.657 385.869 505.423 415.492 505.742 422.545C506.061 429.598 507.018 495 507.018 495H557.117C549.246 466.894 530.632 407.926 519.144 396.898Z" fill="#E4E8F3"/>
<path d="M264.82 377.021L244.079 371.25V374.777L264.82 380.227V377.021Z" fill="#0B1C26"/>
<path d="M264.82 377.021L244.079 371.25V374.777L264.82 380.227V377.021Z" fill="#0B1C26"/>
<path d="M266.735 354.258L246.313 347.846L245.993 351.694L266.735 357.464V354.258Z" fill="#0B1C26"/>
<path d="M266.735 354.258L246.313 347.846L245.993 351.694L266.735 357.464V354.258Z" fill="#0B1C26"/>
<path d="M900.152 294.627L796.125 255.515V261.285L900.152 300.719V294.627Z" fill="#A7B6BC"/>
<path d="M202.915 387.28L204.829 336.305L246.312 347.846L245.993 351.694L207.382 341.114L206.744 360.35L244.079 371.25V374.776L206.106 364.517L205.467 387.28H202.915Z" fill="#C5CACE"/>
<path d="M201 388.241L203.234 387.6L205.148 336.305C204.191 336.519 202.213 336.946 201.957 336.946C201.702 336.946 201.319 371.25 201 388.241Z" fill="#606468"/>
<path d="M796.125 255.515L201 387.6V392.73L796.125 261.285V255.515Z" fill="#687981"/>
<path d="M785.595 0L263.863 145.55L258.758 353.617L790.062 231.791L785.595 0Z" fill="white"/>
<path d="M263.544 355.541L259.076 353.617L788.466 231.791L793.253 234.676L263.544 355.541Z" fill="#585858"/>
<path d="M790.381 1.92372L785.594 0.32074L788.466 231.791L793.572 234.997L790.381 1.92372Z" fill="#C0C3C2"/>
<path d="M795.486 197.807H793.253H791.976L793.572 256.156L796.125 255.515L795.486 197.807Z" fill="#757B89"/>
<g filter="url(#filter1_i_70_223)">
<path d="M341.863 282.748C327.529 286.339 315.394 283.394 307.871 274.049C300.988 266.317 297.369 253.926 297.369 238.338C297.369 203.247 314.755 177.615 341.934 170.806C362.585 165.634 378.836 174.122 381.533 191.325L356.198 197.671C354.495 192.261 348.747 189.859 341.863 191.584C329.019 194.801 320.929 210.199 321.993 231.727L322.49 231.602C326.322 220.299 335.831 210.899 349.102 207.575C368.404 202.74 382.81 213.98 382.81 234.223C382.81 256.681 365.779 276.757 341.863 282.748ZM341.58 261.912C350.663 259.636 357.831 250.601 357.831 241.293C357.831 231.91 350.805 226.578 341.651 228.871C332.496 231.164 325.471 240.016 325.471 249.325C325.471 258.707 332.567 264.169 341.58 261.912Z" fill="#1A88FF"/>
<path d="M396.777 266.333L439.639 170.342V169.825L389.113 182.481V161.648L465.258 142.574V163.481L424.027 259.507L396.777 266.333Z" fill="#1A88FF"/>
<path d="M514.991 239.38C488.166 246.1 471.56 228.983 471.56 194.113C471.56 159.095 488.379 134.049 514.991 127.383C541.531 120.735 558.279 137.299 558.279 172.316C558.279 207.113 541.744 232.679 514.991 239.38ZM514.991 218.252C525.138 215.71 531.809 202.071 531.809 179.021C531.809 155.971 525.138 145.97 514.991 148.512C504.843 151.054 498.03 164.507 498.03 187.409C498.03 210.458 504.772 220.811 514.991 218.252Z" fill="#1A88FF"/>
<path d="M609.502 215.706C582.677 222.425 566.072 205.308 566.072 170.438C566.072 135.421 582.89 110.374 609.502 103.708C636.043 97.0598 652.791 113.624 652.791 148.642C652.791 183.438 636.256 209.004 609.502 215.706ZM609.502 194.577C619.65 192.035 626.321 178.396 626.321 155.346C626.321 132.297 619.65 122.295 609.502 124.837C599.354 127.379 592.542 140.832 592.542 163.734C592.542 186.783 599.283 197.137 609.502 194.577Z" fill="#1A88FF"/>
<path d="M704.014 192.031C677.189 198.75 660.583 181.634 660.583 146.764C660.583 111.746 677.402 86.6996 704.014 80.0335C730.554 73.3851 747.302 89.9493 747.302 124.967C747.302 159.763 730.767 185.329 704.014 192.031ZM704.014 170.902C714.162 168.36 720.832 154.721 720.832 131.671C720.832 108.622 714.162 98.6203 704.014 101.162C693.866 103.704 687.053 117.157 687.053 140.059C687.053 163.109 693.795 173.462 704.014 170.902Z" fill="#1A88FF"/>
</g>
</g>
<defs>
<filter id="filter0_d_70_223" x="-172" y="0" width="1072.15" height="1072" filterUnits="userSpaceOnUse" color-interpolation-filters="sRGB">
<feFlood flood-opacity="0" result="BackgroundImageFix"/>
<feColorMatrix in="SourceAlpha" type="matrix" values="0 0 0 0 0 0 0 0 0 0 0 0 0 0 0 0 0 0 127 0" result="hardAlpha"/>
<feOffset dx="-195" dy="399"/>
<feGaussianBlur stdDeviation="89"/>
<feColorMatrix type="matrix" values="0 0 0 0 0 0 0 0 0 0 0 0 0 0 0 0 0 0 0.03 0"/>
<feBlend mode="normal" in2="BackgroundImageFix" result="effect1_dropShadow_70_223"/>
<feBlend mode="normal" in="SourceGraphic" in2="effect1_dropShadow_70_223" result="shape"/>
</filter>
<filter id="filter1_i_70_223" x="297.369" y="78.5911" width="452.934" height="208.639" filterUnits="userSpaceOnUse" color-interpolation-filters="sRGB">
<feFlood flood-opacity="0" result="BackgroundImageFix"/>
<feBlend mode="normal" in="SourceGraphic" in2="BackgroundImageFix" result="shape"/>
<feColorMatrix in="SourceAlpha" type="matrix" values="0 0 0 0 0 0 0 0 0 0 0 0 0 0 0 0 0 0 127 0" result="hardAlpha"/>
<feOffset dx="3" dy="3"/>
<feGaussianBlur stdDeviation="2"/>
<feComposite in2="hardAlpha" operator="arithmetic" k2="-1" k3="1"/>
<feColorMatrix type="matrix" values="0 0 0 0 0 0 0 0 0 0 0 0 0 0 0 0 0 0 0.25 0"/>
<feBlend mode="normal" in2="shape" result="effect1_innerShadow_70_223"/>
</filter>
</defs>
</svg>
