<svg width="32" height="32" viewBox="0 0 32 32" fill="none" xmlns="http://www.w3.org/2000/svg">
<g id="vuesax/bold/edit">
<g id="edit">
<path id="Vector" d="M21.5867 2.66667H10.4134C5.56002 2.66667 2.66669 5.56 2.66669 10.4133V21.5733C2.66669 26.44 5.56002 29.3333 10.4134 29.3333H21.5734C26.4267 29.3333 29.32 26.44 29.32 21.5867V10.4133C29.3334 5.56 26.44 2.66667 21.5867 2.66667ZM14.6 23.3467C14.2134 23.7333 13.48 24.1067 12.9467 24.1867L9.66669 24.6533C9.54669 24.6667 9.42669 24.68 9.30669 24.68C8.76002 24.68 8.25335 24.4933 7.89335 24.1333C7.45335 23.6933 7.26669 23.0533 7.37335 22.3467L7.84002 19.0667C7.92002 18.52 8.28002 17.8 8.68002 17.4133L14.6267 11.4667C14.7334 11.7467 14.84 12.0267 14.9867 12.3467C15.12 12.6267 15.2667 12.92 15.4267 13.1867C15.56 13.4133 15.7067 13.6267 15.8267 13.7867C15.9734 14.0133 16.1467 14.2267 16.2534 14.3467C16.32 14.44 16.3734 14.5067 16.4 14.5333C16.7334 14.9333 17.12 15.3067 17.4534 15.5867C17.5467 15.68 17.6 15.7333 17.6267 15.7467C17.8267 15.9067 18.0267 16.0667 18.2 16.1867C18.4134 16.3467 18.6267 16.4933 18.8534 16.6133C19.12 16.7733 19.4134 16.92 19.7067 17.0667C20.0134 17.2 20.2934 17.32 20.5734 17.4133L14.6 23.3467ZM23.16 14.7867L21.9334 16.0267C21.8534 16.1067 21.7467 16.1467 21.64 16.1467C21.6 16.1467 21.5467 16.1467 21.52 16.1333C18.8134 15.36 16.6534 13.2 15.88 10.4933C15.84 10.3467 15.88 10.1867 15.9867 10.0933L17.2267 8.85333C19.2534 6.82667 21.1867 6.86667 23.1734 8.85333C24.1867 9.86667 24.68 10.84 24.68 11.8533C24.6667 12.8133 24.1734 13.7733 23.16 14.7867Z" fill="white"/>
</g>
</g>
</svg>
