<svg width="32" height="32" viewBox="0 0 32 32" fill="none" xmlns="http://www.w3.org/2000/svg">
<g id="vuesax/bold/document-text">
<g id="document-text">
<path id="Vector" d="M21.2184 2.96816C20.6828 2.43265 19.7555 2.79837 19.7555 3.54286V8.10122C19.7555 10.0082 21.3751 11.5886 23.3473 11.5886C24.5881 11.6016 26.3122 11.6016 27.7881 11.6016C28.5326 11.6016 28.9245 10.7265 28.402 10.2041C26.5212 8.3102 23.1514 4.90122 21.2184 2.96816Z" fill="white"/>
<path id="Vector_2" d="M27.3571 13.391H23.5824C20.4869 13.391 17.9661 10.8702 17.9661 7.77469V4C17.9661 3.28163 17.3784 2.69388 16.66 2.69388H11.122C7.09917 2.69388 3.84692 5.30612 3.84692 9.96898V21.5412C3.84692 26.2041 7.09917 28.8163 11.122 28.8163H21.3881C25.411 28.8163 28.6632 26.2041 28.6632 21.5412V14.6971C28.6632 13.9788 28.0755 13.391 27.3571 13.391ZM15.602 23.2653H10.3775C9.84203 23.2653 9.39794 22.8212 9.39794 22.2857C9.39794 21.7502 9.84203 21.3061 10.3775 21.3061H15.602C16.1375 21.3061 16.5816 21.7502 16.5816 22.2857C16.5816 22.8212 16.1375 23.2653 15.602 23.2653ZM18.2143 18.0408H10.3775C9.84203 18.0408 9.39794 17.5967 9.39794 17.0612C9.39794 16.5257 9.84203 16.0816 10.3775 16.0816H18.2143C18.7498 16.0816 19.1939 16.5257 19.1939 17.0612C19.1939 17.5967 18.7498 18.0408 18.2143 18.0408Z" fill="white"/>
</g>
</g>
</svg>
