<svg width="25" height="26" viewBox="0 0 25 26" fill="none" xmlns="http://www.w3.org/2000/svg">
<path d="M17.7663 0.163017C18.5819 -0.165335 19.5304 0.0065368 20.2036 0.640702C20.3552 0.783518 20.5726 1.11294 20.8667 1.95981C21.1536 2.78551 21.455 3.91646 21.88 5.51563L23.3754 11.1424C23.7657 12.6112 24.0394 13.6445 24.187 14.4345C24.3371 15.2384 24.317 15.6091 24.2606 15.8096C24.0185 16.6703 23.3361 17.2986 22.5076 17.4698C22.3267 17.5072 21.9783 17.5034 21.2044 17.2891C20.445 17.0788 19.4566 16.7217 18.0463 16.2108L16.1081 15.5087L13.4673 5.57192L14.5437 4.06274C15.496 2.72745 16.1682 1.78656 16.7204 1.12511C17.2881 0.445154 17.5946 0.232145 17.7663 0.163017Z" fill="#98B2C0"/>
<path d="M7.73019 23.3423C7.21217 22.7066 6.78972 21.7747 6.2988 20.123L12.2141 18.5317L13.3015 22.6231C13.603 23.7578 12.9383 24.8592 11.9081 25.1364C11.5468 25.2335 11.1756 25.2234 10.8421 25.1092C9.13167 24.5234 8.31921 24.065 7.73019 23.3423Z" fill="#98B2C0"/>
<path fill-rule="evenodd" clip-rule="evenodd" d="M17.7663 0.163017C18.5819 -0.165335 19.5304 0.0065368 20.2036 0.640702C20.3552 0.783518 20.5726 1.11294 20.8667 1.95981C21.1536 2.78551 21.455 3.91646 21.88 5.51563L23.3754 11.1424C23.7657 12.6112 24.0394 13.6445 24.187 14.4345C24.3371 15.2384 24.317 15.6091 24.2606 15.8096C24.0185 16.6703 23.3361 17.2986 22.5076 17.4698C22.3267 17.5072 21.9783 17.5034 21.2044 17.2891C20.445 17.0788 19.4566 16.7217 18.0463 16.2108L16.1081 15.5087L13.4673 5.57192L14.5437 4.06274C15.496 2.72745 16.1682 1.78656 16.7204 1.12511C17.2881 0.445154 17.5946 0.232145 17.7663 0.163017ZM7.73019 23.3423C7.21217 22.7066 6.78972 21.7747 6.2988 20.123L12.2141 18.5317L13.3015 22.6231C13.603 23.7578 12.9383 24.8592 11.9081 25.1364C11.5468 25.2335 11.1756 25.2234 10.8421 25.1092C9.13167 24.5234 8.31921 24.065 7.73019 23.3423Z" fill="#98B2C0"/>
<path d="M11.189 6.87617L13.503 15.5834L4.41275 18.0288C4.02153 18.134 3.90797 18.1632 3.82209 18.1782C2.73492 18.3676 1.62028 17.7383 1.2151 16.6171C1.18291 16.528 1.14959 16.4072 1.04419 16.0106L0.545399 14.1338C0.321719 13.2921 0.170296 12.7198 0.0818872 12.2671C-0.00448167 11.8249 -0.0113516 11.5856 0.0106191 11.4122C0.0916438 10.7728 0.417388 10.2059 0.90234 9.82833C1.02838 9.73019 1.22411 9.62109 1.63657 9.47882C2.06052 9.33258 2.61753 9.182 3.44457 8.95951L11.189 6.87617Z" fill="#98B2C0"/>
</svg>
