<svg width="27" height="28" viewBox="0 0 27 28" fill="none" xmlns="http://www.w3.org/2000/svg">
<path d="M19.7382 0.18111C20.6444 -0.183686 21.6982 0.00726234 22.446 0.711816C22.6144 0.870483 22.856 1.23647 23.1828 2.17734C23.5015 3.09468 23.8364 4.35116 24.3085 6.12783L25.9699 12.3792C26.4035 14.011 26.7077 15.159 26.8715 16.0366C27.0383 16.9298 27.0161 17.3416 26.9534 17.5644C26.6844 18.5206 25.9263 19.2186 25.0058 19.4089C24.8049 19.4504 24.4178 19.4462 23.5579 19.2081C22.7143 18.9744 21.6162 18.5777 20.0493 18.0101L17.896 17.2301L14.9621 6.19037L16.158 4.51368C17.216 3.03018 17.9628 1.98485 18.5763 1.24999C19.2069 0.494563 19.5475 0.257912 19.7382 0.18111Z" fill="white"/>
<path d="M8.58819 25.9331C8.01268 25.2269 7.54333 24.1916 6.99793 22.3565L13.5698 20.5886L14.7778 25.1341C15.1129 26.3947 14.3743 27.6184 13.2298 27.9263C12.8285 28.0343 12.416 28.023 12.0455 27.8962C10.1452 27.2453 9.24259 26.7361 8.58819 25.9331Z" fill="white"/>
<path fill-rule="evenodd" clip-rule="evenodd" d="M19.7382 0.18111C20.6444 -0.183686 21.6982 0.00726234 22.446 0.711816C22.6144 0.870483 22.856 1.23647 23.1828 2.17734C23.5015 3.09468 23.8364 4.35116 24.3085 6.12783L25.9699 12.3792C26.4035 14.011 26.7077 15.159 26.8715 16.0366C27.0383 16.9298 27.0161 17.3416 26.9534 17.5644C26.6844 18.5206 25.9263 19.2186 25.0058 19.4089C24.8049 19.4504 24.4178 19.4462 23.5579 19.2081C22.7143 18.9744 21.6162 18.5777 20.0493 18.0101L17.896 17.2301L14.9621 6.19037L16.158 4.51368C17.216 3.03018 17.9628 1.98485 18.5763 1.24999C19.2069 0.494563 19.5475 0.257912 19.7382 0.18111ZM8.58819 25.9331C8.01268 25.2269 7.54333 24.1916 6.99793 22.3565L13.5698 20.5886L14.7778 25.1341C15.1129 26.3947 14.3743 27.6184 13.2298 27.9263C12.8285 28.0343 12.416 28.023 12.0455 27.8962C10.1452 27.2453 9.24259 26.7361 8.58819 25.9331Z" fill="url(#paint0_radial_191_18)"/>
<path d="M12.4309 7.63939L15.0017 17.313L4.90254 20.0298C4.46789 20.1468 4.34173 20.1792 4.24632 20.1958C3.03848 20.4063 1.80013 19.7071 1.34996 18.4614C1.31421 18.3625 1.27718 18.2283 1.16009 17.7877L0.605935 15.7025C0.357427 14.7674 0.189198 14.1316 0.0909762 13.6287C-0.00497911 13.1374 -0.0126116 12.8715 0.0117978 12.6789C0.101816 11.9685 0.463715 11.3387 1.00249 10.9192C1.14252 10.8102 1.35997 10.689 1.81822 10.5309C2.28923 10.3684 2.90806 10.2011 3.82689 9.95396L12.4309 7.63939Z" fill="url(#paint1_radial_191_18)"/>
<defs>
<radialGradient id="paint0_radial_191_18" cx="0" cy="0" r="1" gradientUnits="userSpaceOnUse" gradientTransform="translate(8.45604 6.30769) rotate(56.6285) scale(33.7123 33.2504)">
<stop stop-color="#007AFF"/>
<stop offset="1" stop-color="#0068D9"/>
</radialGradient>
<radialGradient id="paint1_radial_191_18" cx="0" cy="0" r="1" gradientUnits="userSpaceOnUse" gradientTransform="translate(8.45604 6.30769) rotate(56.6285) scale(33.7123 33.2504)">
<stop stop-color="#007AFF"/>
<stop offset="1" stop-color="#0068D9"/>
</radialGradient>
</defs>
</svg>
