<svg width="16" height="16" viewBox="0 0 16 16" fill="none" xmlns="http://www.w3.org/2000/svg">
<g id="star-02">
<path id="Icon" d="M7.66339 1.80928C7.8011 1.53025 8.19899 1.53025 8.3367 1.80928L10.1194 5.42136C10.1741 5.53217 10.2798 5.60896 10.402 5.62673L14.3882 6.20596C14.6961 6.2507 14.8191 6.62912 14.5963 6.84631L11.7119 9.65793C11.6234 9.74417 11.583 9.86844 11.6039 9.99022L12.2848 13.9603C12.3374 14.267 12.0155 14.5008 11.7401 14.356L8.17475 12.4816C8.06538 12.4241 7.93472 12.4241 7.82535 12.4816L4.26001 14.356C3.98459 14.5008 3.66269 14.267 3.71529 13.9603L4.39621 9.99022C4.4171 9.86844 4.37672 9.74417 4.28824 9.65793L1.40382 6.84631C1.181 6.62912 1.30396 6.2507 1.61189 6.20596L5.59806 5.62673C5.72033 5.60896 5.82604 5.53217 5.88073 5.42136L7.66339 1.80928Z" fill="#FFDA44"/>
</g>
</svg>
