<svg width="18" height="18" viewBox="0 0 18 18" fill="none" xmlns="http://www.w3.org/2000/svg">
<g id="star-02">
<path id="Icon" d="M8.62132 2.03548C8.77624 1.72157 9.22387 1.72157 9.37879 2.03548L11.3843 6.09907C11.4458 6.22373 11.5647 6.31013 11.7023 6.33012L16.1867 6.98174C16.5332 7.03208 16.6715 7.4578 16.4208 7.70214L13.1758 10.8652C13.0763 10.9622 13.0309 11.102 13.0544 11.239L13.8204 15.7054C13.8796 16.0504 13.5174 16.3135 13.2076 16.1506L9.19659 14.0419C9.07355 13.9772 8.92656 13.9772 8.80352 14.0419L4.79251 16.1506C4.48266 16.3135 4.12053 16.0504 4.1797 15.7054L4.94574 11.239C4.96924 11.102 4.92381 10.9622 4.82427 10.8652L1.5793 7.70214C1.32863 7.4578 1.46695 7.03208 1.81337 6.98174L6.29781 6.33012C6.43538 6.31013 6.5543 6.22373 6.61582 6.09907L8.62132 2.03548Z" stroke="#FFDA44" stroke-width="2" stroke-linejoin="round"/>
</g>
</svg>
