<svg width="106" height="14" viewBox="0 0 106 14" fill="none" xmlns="http://www.w3.org/2000/svg">
<path d="M5.85352 13.2534H3.88477V2.26709H0V0.570801H9.72949V2.26709H5.85352V13.2534Z" fill="black"/>
<path d="M12.709 5.36963C11.3818 5.36963 10.4502 6.38037 10.3535 7.77783H14.9766C14.9326 6.36279 14.0361 5.36963 12.709 5.36963ZM14.9678 10.5376H16.7695C16.5059 12.2251 14.9062 13.4292 12.7881 13.4292C10.0723 13.4292 8.42871 11.5923 8.42871 8.67432C8.42871 5.77393 10.0986 3.84033 12.709 3.84033C15.2754 3.84033 16.875 5.65088 16.875 8.45459V9.10498H10.3447V9.21924C10.3447 10.8276 11.3115 11.8911 12.832 11.8911C13.9131 11.8911 14.7129 11.3462 14.9678 10.5376Z" fill="black"/>
<path d="M18.4219 13.2534V0.570801H20.3203V13.2534H18.4219Z" fill="black"/>
<path d="M26.1387 5.36963C24.8115 5.36963 23.8799 6.38037 23.7832 7.77783H28.4062C28.3623 6.36279 27.4658 5.36963 26.1387 5.36963ZM28.3975 10.5376H30.1992C29.9355 12.2251 28.3359 13.4292 26.2178 13.4292C23.502 13.4292 21.8584 11.5923 21.8584 8.67432C21.8584 5.77393 23.5283 3.84033 26.1387 3.84033C28.7051 3.84033 30.3047 5.65088 30.3047 8.45459V9.10498H23.7744V9.21924C23.7744 10.8276 24.7412 11.8911 26.2617 11.8911C27.3428 11.8911 28.1426 11.3462 28.3975 10.5376Z" fill="black"/>
<path d="M40.0781 13.2534L38.918 9.82568H34.084L32.9238 13.2534H30.876L35.4551 0.570801H37.582L42.1611 13.2534H40.0781ZM36.4746 2.68018L34.585 8.24365H38.417L36.5273 2.68018H36.4746Z" fill="black"/>
<path d="M46.5557 13.4116C44.2178 13.4116 42.6709 11.5483 42.6709 8.63037C42.6709 5.7124 44.2178 3.85791 46.5381 3.85791C47.8652 3.85791 48.9199 4.52588 49.4385 5.54541H49.4736V0.570801H51.3809V13.2534H49.5352V11.6802H49.5C48.9551 12.7349 47.9004 13.4116 46.5557 13.4116ZM47.0566 5.45752C45.5537 5.45752 44.6133 6.68799 44.6133 8.63037C44.6133 10.5815 45.5537 11.8032 47.0566 11.8032C48.5156 11.8032 49.4912 10.564 49.4912 8.63037C49.4912 6.71436 48.5156 5.45752 47.0566 5.45752Z" fill="black"/>
<path d="M66.3926 13.2534H64.5908V3.91943H64.5293L60.7061 13.1567H59.2471L55.415 3.91943H55.3535V13.2534H53.5605V0.570801H55.8369L59.9414 10.5815H60.0117L64.1074 0.570801H66.3926V13.2534Z" fill="black"/>
<path d="M71.4902 11.9087C72.8174 11.9087 73.8545 10.9946 73.8545 9.79053V9.06104L71.5781 9.20166C70.4443 9.28076 69.8027 9.78174 69.8027 10.5728C69.8027 11.3813 70.4707 11.9087 71.4902 11.9087ZM70.9629 13.4116C69.1523 13.4116 67.8867 12.2866 67.8867 10.6255C67.8867 9.0083 69.126 8.01514 71.3232 7.89209L73.8545 7.74268V7.03076C73.8545 6.00244 73.1602 5.38721 72 5.38721C70.9014 5.38721 70.2158 5.91455 70.0488 6.74072H68.2559C68.3613 5.0708 69.7852 3.84033 72.0703 3.84033C74.3115 3.84033 75.7441 5.02686 75.7441 6.88135V13.2534H73.9248V11.7329H73.8809C73.3447 12.7612 72.1758 13.4116 70.9629 13.4116Z" fill="black"/>
<path d="M77.5898 13.2534V4.00732H79.4004V5.58057H79.4443C79.752 4.49951 80.5781 3.85791 81.668 3.85791C81.9404 3.85791 82.1777 3.90186 82.3184 3.92822V5.69482C82.1689 5.6333 81.835 5.58936 81.4658 5.58936C80.2441 5.58936 79.4883 6.40674 79.4883 7.71631V13.2534H77.5898Z" fill="black"/>
<path d="M85.4824 7.97119L89.2178 4.00732H91.4502L87.6182 7.98877L91.5996 13.2534H89.3936L86.2559 9.14893L85.4648 9.93115V13.2534H83.5664V0.570801H85.4648V7.97119H85.4824Z" fill="black"/>
<path d="M96.0117 5.36963C94.6846 5.36963 93.7529 6.38037 93.6562 7.77783H98.2793C98.2354 6.36279 97.3389 5.36963 96.0117 5.36963ZM98.2705 10.5376H100.072C99.8086 12.2251 98.209 13.4292 96.0908 13.4292C93.375 13.4292 91.7314 11.5923 91.7314 8.67432C91.7314 5.77393 93.4014 3.84033 96.0117 3.84033C98.5781 3.84033 100.178 5.65088 100.178 8.45459V9.10498H93.6475V9.21924C93.6475 10.8276 94.6143 11.8911 96.1348 11.8911C97.2158 11.8911 98.0156 11.3462 98.2705 10.5376Z" fill="black"/>
<path d="M102.208 1.81885H104.115V4.00732H105.873V5.51025H104.115V10.6079C104.115 11.4077 104.467 11.7681 105.24 11.7681C105.434 11.7681 105.741 11.7505 105.864 11.7241V13.2271C105.653 13.2798 105.231 13.3149 104.81 13.3149C102.938 13.3149 102.208 12.603 102.208 10.8188V5.51025H100.863V4.00732H102.208V1.81885Z" fill="black"/>
</svg>
