<svg width="96" height="13" viewBox="0 0 96 13" fill="none" xmlns="http://www.w3.org/2000/svg">
<path d="M5.97282 12.23H4.20076V2.34127H0.704102V0.814453H9.46157V2.34127H5.97282V12.23Z" fill="#98B2C0"/>
<path d="M12.1434 5.13385C10.9488 5.13385 10.1103 6.04362 10.0232 7.30147H14.1844C14.1449 6.0278 13.338 5.13385 12.1434 5.13385ZM14.1765 9.78552H15.7983C15.5609 11.3044 14.1211 12.3882 12.2146 12.3882C9.7701 12.3882 8.29074 10.7348 8.29074 8.10839C8.29074 5.49776 9.79383 3.75734 12.1434 3.75734C14.4534 3.75734 15.8932 5.38701 15.8932 7.91061V8.49603H10.0153V8.59887C10.0153 10.0466 10.8855 11.0038 12.2541 11.0038C13.2272 11.0038 13.9471 10.5133 14.1765 9.78552Z" fill="#98B2C0"/>
<path d="M17.2855 12.23V0.814453H18.9943V12.23H17.2855Z" fill="#98B2C0"/>
<path d="M24.2314 5.13385C23.0368 5.13385 22.1983 6.04362 22.1112 7.30147H26.2724C26.2329 6.0278 25.426 5.13385 24.2314 5.13385ZM26.2645 9.78552H27.8863C27.6489 11.3044 26.2091 12.3882 24.3026 12.3882C21.8581 12.3882 20.3787 10.7348 20.3787 8.10839C20.3787 5.49776 21.8818 3.75734 24.2314 3.75734C26.5414 3.75734 27.9812 5.38701 27.9812 7.91061V8.49603H22.1033V8.59887C22.1033 10.0466 22.9735 11.0038 24.3421 11.0038C25.3152 11.0038 26.0351 10.5133 26.2645 9.78552Z" fill="#98B2C0"/>
<path d="M36.7782 12.23L35.734 9.14473H31.3829L30.3387 12.23H28.4954L32.617 0.814453H34.5315L38.6531 12.23H36.7782ZM33.5347 2.71309L31.8339 7.72075H35.283L33.5822 2.71309H33.5347Z" fill="#98B2C0"/>
<path d="M42.6086 12.3724C40.5043 12.3724 39.112 10.6953 39.112 8.06883C39.112 5.44238 40.5043 3.77316 42.5928 3.77316C43.7874 3.77316 44.7367 4.3744 45.2034 5.29207H45.2351V0.814453H46.9518V12.23H45.2905V10.8139H45.2588C44.7683 11.7633 43.819 12.3724 42.6086 12.3724ZM43.0596 5.21296C41.7068 5.21296 40.8603 6.3205 40.8603 8.06883C40.8603 9.82507 41.7068 10.9247 43.0596 10.9247C44.3728 10.9247 45.2509 9.80925 45.2509 8.06883C45.2509 6.34424 44.3728 5.21296 43.0596 5.21296Z" fill="#98B2C0"/>
<path d="M60.4637 12.23H58.842V3.82854H58.7866L55.3453 12.143H54.0321L50.5829 3.82854H50.5275V12.23H48.9137V0.814453H50.9626L54.6571 9.82507H54.7204L58.4069 0.814453H60.4637V12.23Z" fill="#98B2C0"/>
<path d="M65.0521 11.0196C66.2467 11.0196 67.1802 10.1969 67.1802 9.11308V8.45647L65.1312 8.58305C64.1107 8.65425 63.5332 9.10517 63.5332 9.81716C63.5332 10.545 64.1344 11.0196 65.0521 11.0196ZM64.5774 12.3724C62.9478 12.3724 61.8086 11.3598 61.8086 9.86463C61.8086 8.40901 62.924 7.51506 64.9018 7.40431L67.1802 7.26982V6.62903C67.1802 5.70345 66.5552 5.14968 65.5109 5.14968C64.5221 5.14968 63.905 5.62434 63.7547 6.36797H62.1409C62.2358 4.86488 63.5174 3.75734 65.5742 3.75734C67.5915 3.75734 68.881 4.82533 68.881 6.49454V12.23H67.2435V10.8614H67.2039C66.7213 11.787 65.6692 12.3724 64.5774 12.3724Z" fill="#98B2C0"/>
<path d="M70.5423 12.23V3.90765H72.172V5.32372H72.2116C72.4884 4.35067 73.2321 3.77316 74.213 3.77316C74.4583 3.77316 74.6719 3.81272 74.7984 3.83645V5.42656C74.664 5.37118 74.3633 5.33163 74.0311 5.33163C72.9315 5.33163 72.2511 6.06735 72.2511 7.24609V12.23H70.5423Z" fill="#98B2C0"/>
<path d="M77.6464 7.47551L81.0086 3.90765H83.018L79.5688 7.49133L83.1525 12.23H81.1668L78.3426 8.53558L77.6306 9.23966V12.23H75.9218V0.814453H77.6306V7.47551H77.6464Z" fill="#98B2C0"/>
<path d="M87.1238 5.13385C85.9292 5.13385 85.0907 6.04362 85.0036 7.30147H89.1648C89.1253 6.0278 88.3183 5.13385 87.1238 5.13385ZM89.1569 9.78552H90.7786C90.5413 11.3044 89.1015 12.3882 87.195 12.3882C84.7505 12.3882 83.2711 10.7348 83.2711 8.10839C83.2711 5.49776 84.7742 3.75734 87.1238 3.75734C89.4338 3.75734 90.8736 5.38701 90.8736 7.91061V8.49603H84.9957V8.59887C84.9957 10.0466 85.8659 11.0038 87.2345 11.0038C88.2076 11.0038 88.9275 10.5133 89.1569 9.78552Z" fill="#98B2C0"/>
<path d="M92.701 1.93781H94.4177V3.90765H95.9999V5.26043H94.4177V9.84881C94.4177 10.5687 94.7341 10.8931 95.4303 10.8931C95.6044 10.8931 95.8812 10.8772 95.992 10.8535V12.2063C95.8021 12.2537 95.4224 12.2854 95.0427 12.2854C93.3576 12.2854 92.701 11.6446 92.701 10.0387V5.26043H91.4906V3.90765H92.701V1.93781Z" fill="#98B2C0"/>
</svg>
