<svg width="19" height="16" viewBox="0 0 19 16" fill="none" xmlns="http://www.w3.org/2000/svg">
<path id="Vector" d="M2.02483 6.98047C6.6777 4.91068 9.78034 3.54614 11.3328 2.88687C15.7652 1.00451 16.6862 0.677521 17.2866 0.666609C17.4186 0.664349 17.7138 0.697758 17.905 0.856189C18.0665 0.989964 18.1109 1.17068 18.1322 1.29751C18.1535 1.42434 18.1799 1.71327 18.1589 1.93904C17.9187 4.51585 16.8794 10.7691 16.3506 13.6552C16.1269 14.8764 15.6863 15.2858 15.2598 15.3259C14.333 15.413 13.6291 14.7005 12.7314 14.0997C11.3267 13.1595 10.5331 12.5742 9.16953 11.6568C7.59371 10.5965 8.61525 10.0137 9.51331 9.06138C9.74833 8.81214 13.8321 5.01953 13.9112 4.67548C13.9211 4.63245 13.9302 4.47206 13.8369 4.38737C13.7436 4.30267 13.6058 4.33164 13.5065 4.35467C13.3656 4.38732 11.1215 5.90177 6.77413 8.89801C6.13715 9.34461 5.56019 9.5622 5.04326 9.5508C4.47338 9.53823 3.37716 9.22181 2.56223 8.95134C1.56269 8.6196 0.768275 8.44421 0.837451 7.88081C0.873482 7.58736 1.26927 7.28724 2.02483 6.98047Z" fill="white"/>
</svg>
