<svg width="20" height="13" viewBox="0 0 20 13" fill="none" xmlns="http://www.w3.org/2000/svg">
<path id="Cellular Connection" d="M1.06668 7.92759H2.13333C2.72244 7.92759 3.20001 8.44246 3.20001 9.07759V11.3776C3.20001 12.0127 2.72244 12.5276 2.13333 12.5276H1.06668C0.477577 12.5276 0 12.0127 0 11.3776V9.07759C0 8.44246 0.477577 7.92759 1.06668 7.92759ZM6.36667 5.52759H7.43332C8.02242 5.52759 8.5 6.04992 8.5 6.69425V11.3609C8.5 12.0053 8.02242 12.5276 7.43332 12.5276H6.36667C5.77756 12.5276 5.29999 12.0053 5.29999 11.3609V6.69425C5.29999 6.04992 5.77756 5.52759 6.36667 5.52759ZM11.7667 2.92759H12.8333C13.4224 2.92759 13.9 3.44336 13.9 4.07959V11.3756C13.9 12.0118 13.4224 12.5276 12.8333 12.5276H11.7667C11.1776 12.5276 10.7 12.0118 10.7 11.3756V4.07959C10.7 3.44336 11.1776 2.92759 11.7667 2.92759ZM18.1333 0.527588C18.7224 0.527588 19.2 1.03127 19.2 1.65259V11.4026C19.2 12.0239 18.7224 12.5276 18.1333 12.5276H17.0667C16.4776 12.5276 16 12.0239 16 11.4026V1.65259C16 1.03127 16.4776 0.527588 17.0667 0.527588H18.1333Z" fill="white"/>
</svg>
