<svg width="18" height="13" viewBox="0 0 18 13" fill="none" xmlns="http://www.w3.org/2000/svg">
<path id="WiFi" d="M9.27149 3.04805C11.7586 3.04815 14.1506 3.95316 15.9531 5.57602C16.0889 5.70131 16.3058 5.69973 16.4395 5.57248L17.737 4.33241C17.8047 4.26787 17.8424 4.18044 17.8419 4.08947C17.8413 3.99851 17.8025 3.91151 17.734 3.84772C13.003 -0.445984 5.53928 -0.445984 0.808266 3.84772C0.739734 3.91146 0.700842 3.99844 0.700203 4.0894C0.699579 4.18037 0.737238 4.26782 0.804878 4.33241L2.10276 5.57248C2.23636 5.69992 2.45347 5.70151 2.58912 5.57602C4.39186 3.95306 6.78414 3.04804 9.27149 3.04805ZM9.26972 7.19017C10.627 7.19009 11.9359 7.69235 12.942 8.59937C13.0781 8.72809 13.2925 8.7253 13.4251 8.59308L14.7124 7.2982C14.7802 7.23028 14.8178 7.13814 14.8169 7.0424C14.8159 6.94665 14.7764 6.85529 14.7072 6.78876C11.6434 3.95145 6.89865 3.95145 3.83482 6.78876C3.76561 6.85529 3.72612 6.9467 3.7252 7.04247C3.7243 7.13825 3.76206 7.23038 3.82999 7.2982L5.11689 8.59308C5.24955 8.7253 5.4639 8.72809 5.59998 8.59937C6.60544 7.69295 7.9133 7.19073 9.26972 7.19017ZM11.6894 10.2075C11.7567 10.1351 11.7937 10.0354 11.7918 9.93199C11.7899 9.82859 11.7491 9.73065 11.6792 9.66128C10.2891 8.37172 8.25318 8.37172 6.86308 9.66128C6.79309 9.73059 6.75228 9.8285 6.75028 9.9319C6.74829 10.0353 6.78526 10.135 6.85252 10.2075L9.02955 12.6168C9.09336 12.6876 9.18036 12.7274 9.27113 12.7274C9.36189 12.7274 9.4489 12.6876 9.5127 12.6168L11.6894 10.2075Z" fill="white"/>
</svg>
